<?xml version="1.0" encoding="UTF-8"?>
<svg id="Layer_1" data-name="Layer 1" xmlns="http://www.w3.org/2000/svg" viewBox="0 0 300 300">
  <defs>
    <style>
      .cls-1 {
        fill: #d2ecf0;
      }

      .cls-2 {
        fill: #fff;
      }

      .cls-3 {
        fill: #dbdbdb;
      }

      .cls-4 {
        fill: #da4537;
      }

      .cls-5 {
        fill: #17acb7;
      }

      .cls-6 {
        fill: #1abecb;
      }
    </style>
  </defs>
  <path class="cls-6" d="m185.52,44.01c0,5.7-4.63,10.33-10.33,10.33s-10.34-4.63-10.34-10.33,4.63-10.33,10.34-10.33,10.33,4.62,10.33,10.33Z"/>
  <path class="cls-6" d="m153.94,65.98h-7.81c0-17.97,15.93-23.91,22.07-24.69l.97,7.75c-.15.02-15.23,2.32-15.23,16.94Z"/>
  <path class="cls-6" d="m149.97,62.06c-36.13,0-65.41,29.3-65.41,65.43,0,.57.01,1.13.02,1.69h-.02s0,69.03,0,69.03h18.69v-18.69h18.69v37.39h18.7v-18.69h18.69v37.39h18.69v-56.08h18.69v18.69h18.69v-66.14l-.16.08c.11-1.56.16-3.11.16-4.66,0-36.14-29.3-65.43-65.43-65.43h-.02Z"/>
  <path class="cls-5" d="m181.09,69.93c22.76,61.7-11.58,110.82-59.14,125.4v21.58h18.7v-18.69h18.69v37.39h18.69v-56.08h18.69v18.69h18.69v-70.73c0-14.1-4.55-27.82-12.98-39.12-5.72-7.46-11.5-12.4-16.53-15.57-1.56-1.03-3.17-1.99-4.82-2.88Z"/>
  <path class="cls-2" d="m127.41,107.45c-6.84,0-13.39,2.72-18.22,7.55-4.83,4.83-7.55,11.39-7.54,18.22,0,14.23,11.53,25.76,25.76,25.76,4.3,0,8.54-1.08,12.31-3.13h0c3.13-1.78,6.68-2.71,10.28-2.71,3.4,0,6.74.83,9.75,2.42,3.9,2.24,8.32,3.42,12.83,3.42,14.22,0,25.76-11.53,25.76-25.76,0-6.83-2.71-13.39-7.55-18.22-4.83-4.83-11.39-7.55-18.21-7.55-4.72,0-9.35,1.3-13.38,3.74-2.86,1.41-6,2.14-9.19,2.14s-6.49-.77-9.4-2.25c-3.99-2.38-8.54-3.64-13.19-3.64Z"/>
  <path class="cls-1" d="m127.41,107.45c-14.23,0-25.77,11.53-25.77,25.77,0,.85.04,1.71.13,2.56,1.31-13.18,12.4-23.21,25.64-23.22,4.64,0,9.2,1.26,13.19,3.64,2.92,1.48,6.14,2.25,9.4,2.25s6.33-.73,9.19-2.14c4.03-2.45,8.66-3.75,13.38-3.75,13.23,0,24.32,10.04,25.63,23.21.08-.85.13-1.69.13-2.55,0-14.23-11.53-25.77-25.76-25.77-4.72,0-9.35,1.3-13.38,3.74-2.86,1.41-6,2.14-9.19,2.14s-6.49-.77-9.41-2.25c-3.99-2.38-8.55-3.64-13.19-3.64Z"/>
  <rect class="cls-4" x="84.58" y="216.91" width="18.69" height="18.69"/>
  <rect class="cls-4" x="121.96" y="235.61" width="18.7" height="18.69"/>
  <rect class="cls-4" x="159.36" y="254.3" width="18.69" height="18.7"/>
  <rect class="cls-4" x="196.74" y="216.91" width="18.69" height="18.69"/>
  <path class="cls-2" d="m158.09,179.78c-1.52,0-2.97-.89-3.6-2.39-.76-1.81-2.52-2.97-4.49-2.97s-3.69,1.15-4.46,2.92c-.86,1.98-3.16,2.88-5.14,2.02-1.98-.86-2.88-3.16-2.02-5.14,2.02-4.62,6.58-7.61,11.62-7.61s9.69,3.04,11.68,7.74c.84,1.99-.09,4.28-2.07,5.12-.5.21-1.01.31-1.52.31Z"/>
  <path class="cls-4" d="m120.6,150.06c-.56-1.07-.9-2.26-.9-3.55,0-4.26,3.45-7.71,7.71-7.71s7.72,3.45,7.72,7.71c0,1.29-.35,2.48-.9,3.55,4.91-2.49,8.29-7.57,8.29-13.46,0-8.34-6.76-15.1-15.1-15.1s-15.1,6.76-15.1,15.1c0,5.89,3.38,10.97,8.29,13.46Z"/>
  <path class="cls-4" d="m165.76,150.06c-.56-1.07-.9-2.26-.9-3.55,0-4.26,3.46-7.71,7.72-7.71s7.71,3.45,7.71,7.71c0,1.29-.35,2.48-.91,3.55,4.91-2.49,8.29-7.57,8.29-13.46,0-8.34-6.77-15.1-15.1-15.1s-15.11,6.76-15.11,15.1c0,5.89,3.38,10.97,8.29,13.46Z"/>
  <path class="cls-3" d="m188.74,60.63c-.62,0-1.23-.29-1.61-.84-.62-.89-.4-2.1.49-2.72.03-.02,5.24-4.04,4.84-17.09-.03-1.08.81-1.98,1.89-2.01,1.12.02,1.98.81,2.01,1.89.47,15.38-6.23,20.22-6.51,20.42-.34.23-.73.35-1.11.35Z"/>
  <path class="cls-3" d="m197.44,58.55c-.41,0-.81-.19-1.06-.55-.41-.58-.26-1.39.32-1.79.02-.01,3.45-2.66,3.19-11.27-.02-.71.54-1.31,1.25-1.33.68.02,1.3.54,1.33,1.25.31,10.15-4.11,13.34-4.29,13.47-.22.15-.48.23-.73.23Z"/>
</svg>