<?xml version="1.0" encoding="UTF-8"?>
<svg id="Layer_1" data-name="Layer 1" xmlns="http://www.w3.org/2000/svg" viewBox="0 0 300 300">
  <defs>
    <style>
      .cls-1 {
        fill: #d2ecf0;
      }

      .cls-2 {
        fill: #fff;
      }

      .cls-3 {
        fill: #dbdbdb;
      }

      .cls-4 {
        fill: #da4537;
      }

      .cls-5 {
        fill: #17acb7;
      }

      .cls-6 {
        fill: #1abecb;
      }
    </style>
  </defs>
  <path class="cls-6" d="m149.98,62.06c-36.13,0-65.41,29.3-65.41,65.43,0,.57.01,1.13.02,1.69h-.02s0,69.03,0,69.03h18.69v-18.69h18.69v37.39h18.7v-18.69h18.69v37.39h18.69v-56.08h18.69v18.69h18.69v-66.14l-.16.08c.11-1.56.16-3.11.16-4.66,0-36.14-29.3-65.43-65.43-65.43h-.02Z"/>
  <path class="cls-5" d="m181.1,69.93c22.76,61.7-11.58,110.82-59.14,125.4v21.58h18.7v-18.69h18.69v37.39h18.69v-56.08h18.69v18.69h18.69v-70.73c0-14.1-4.55-27.82-12.98-39.12-5.72-7.46-11.5-12.4-16.53-15.57-1.56-1.03-3.17-1.99-4.82-2.88Z"/>
  <path class="cls-2" d="m123.63,92.09c-7.98,0-15.62,3.17-21.26,8.81-5.63,5.64-8.81,13.29-8.8,21.26,0,16.61,13.45,30.06,30.06,30.06,5.02,0,9.96-1.26,14.36-3.65h0c3.66-2.08,7.79-3.17,12-3.17,3.97,0,7.87.97,11.38,2.82,4.55,2.62,9.71,3.99,14.97,3.99,16.6,0,30.06-13.45,30.06-30.06,0-7.97-3.17-15.62-8.81-21.26-5.63-5.63-13.29-8.81-21.25-8.81-5.51,0-10.91,1.52-15.61,4.37-3.34,1.65-7.01,2.5-10.73,2.5s-7.57-.9-10.97-2.63c-4.65-2.78-9.97-4.25-15.4-4.25Z"/>
  <path class="cls-4" d="m189.01,124.65c0,9.42-7.63,17.05-17.05,17.05s-17.05-7.63-17.05-17.05,7.64-17.04,17.05-17.04,17.05,7.63,17.05,17.04Z"/>
  <rect class="cls-6" x="146.17" y="41.1" width="7.68" height="22.75"/>
  <path class="cls-6" d="m160.33,36.25c0,5.7-4.63,10.33-10.33,10.33s-10.34-4.63-10.34-10.33,4.63-10.33,10.34-10.33,10.33,4.62,10.33,10.33Z"/>
  <path class="cls-4" d="m110.98,124.65c0,9.42,7.63,17.05,17.05,17.05,9.41,0,17.05-7.63,17.05-17.05s-7.64-17.04-17.05-17.04c-9.42,0-17.05,7.63-17.05,17.04Z"/>
  <path class="cls-2" d="m129.65,124.65c0,3.86,3.13,6.98,6.99,6.98,3.85,0,6.98-3.12,6.98-6.98,0-3.86-3.13-6.98-6.98-6.98-3.86,0-6.99,3.12-6.99,6.98Z"/>
  <path class="cls-2" d="m169.71,124.65c0,3.86-3.13,6.98-6.99,6.98s-6.98-3.12-6.98-6.98,3.13-6.98,6.98-6.98,6.99,3.12,6.99,6.98Z"/>
  <path class="cls-1" d="m123.63,92.09c-16.61,0-30.07,13.46-30.07,30.07,0,1,.05,1.99.15,2.99,1.53-15.38,14.47-27.09,29.92-27.1,5.42,0,10.74,1.47,15.4,4.25,3.41,1.73,7.16,2.63,10.97,2.63s7.39-.85,10.73-2.5c4.71-2.86,10.1-4.37,15.61-4.37,15.45,0,28.38,11.71,29.91,27.08.1-.99.15-1.98.15-2.97,0-16.61-13.46-30.07-30.06-30.07-5.51,0-10.91,1.52-15.61,4.37-3.34,1.65-7.01,2.5-10.72,2.5s-7.58-.9-10.98-2.63c-4.65-2.78-9.98-4.25-15.4-4.25Z"/>
  <rect class="cls-4" x="84.57" y="216.91" width="18.69" height="18.69"/>
  <rect class="cls-4" x="121.96" y="235.61" width="18.7" height="18.69"/>
  <rect class="cls-4" x="159.35" y="254.3" width="18.69" height="18.7"/>
  <rect class="cls-4" x="196.74" y="216.91" width="18.69" height="18.69"/>
  <rect class="cls-2" x="138.74" y="160.88" width="22.52" height="22.52" rx="11.26" ry="11.26"/>
  <path class="cls-3" d="m149.98,22.83c-1.08,0-1.95-.88-1.95-1.95v-5.93c0-1.08.88-1.95,1.95-1.95s1.95.88,1.95,1.95v5.93c0,1.08-.88,1.95-1.95,1.95Z"/>
  <path class="cls-3" d="m137.99,26.21c-.5,0-1-.19-1.38-.57l-2.51-2.51c-.76-.76-.76-2,0-2.76.76-.76,2-.76,2.76,0l2.51,2.51c.76.76.76,2,0,2.76-.38.38-.88.57-1.38.57Z"/>
  <path class="cls-3" d="m134.63,38.23h-5.93c-1.08,0-1.95-.88-1.95-1.95s.88-1.95,1.95-1.95h5.93c1.08,0,1.95.88,1.95,1.95s-.88,1.95-1.95,1.95Z"/>
  <path class="cls-3" d="m135.5,52.73c-.5,0-1-.19-1.38-.57-.76-.76-.76-2,0-2.76l2.51-2.51c.76-.76,2-.76,2.76,0,.76.76.76,2,0,2.76l-2.51,2.51c-.38.38-.88.57-1.38.57Z"/>
  <path class="cls-3" d="m164.52,52.71c-.5,0-1-.19-1.38-.57l-2.51-2.51c-.76-.76-.76-2,0-2.76s2-.76,2.76,0l2.51,2.51c.76.76.76,2,0,2.76-.38.38-.88.57-1.38.57Z"/>
  <path class="cls-3" d="m171.31,38.19h-5.93c-1.08,0-1.95-.88-1.95-1.95s.88-1.95,1.95-1.95h5.93c1.08,0,1.95.88,1.95,1.95s-.88,1.95-1.95,1.95Z"/>
  <path class="cls-3" d="m162,26.19c-.5,0-1-.19-1.38-.57-.76-.76-.76-2,0-2.76l2.51-2.51c.76-.76,2-.76,2.76,0,.76.76.76,2,0,2.76l-2.51,2.51c-.38.38-.88.57-1.38.57Z"/>
</svg>