<svg xmlns="http://www.w3.org/2000/svg" id="Layer_1" data-name="Layer 1" viewBox="0 0 300 300"><defs><style> .cls-1 { fill: #d2ecf0; } .cls-2 { fill: #fff; } .cls-3 { fill: #dbdbdb; } .cls-4 { fill: #da4537; } .cls-5 { fill: #17acb7; } .cls-6 { fill: #1abecb; } </style></defs><path class="cls-6" d="m149.98,62.06c-36.13,0-65.41,29.3-65.41,65.43,0,.57.01,1.13.02,1.69h-.02s0,69.03,0,69.03h18.69v-18.69h18.69v37.39h18.7v-18.69h18.69v37.39h18.69v-56.08h18.69v18.69h18.69v-66.14l-.16.08c.11-1.56.16-3.11.16-4.66,0-36.14-29.3-65.43-65.43-65.43h-.02Z"></path><path class="cls-5" d="m181.1,69.93c22.76,61.7-11.58,110.82-59.14,125.4v21.58h18.7v-18.69h18.69v37.39h18.69v-56.08h18.69v18.69h18.69v-70.73c0-14.1-4.55-27.82-12.98-39.12-5.72-7.46-11.5-12.4-16.53-15.57-1.56-1.03-3.17-1.99-4.82-2.88Z"></path><path class="cls-2" d="m127.4,96.39c-6.84,0-13.39,2.72-18.22,7.55-4.83,4.83-7.55,11.39-7.54,18.22,0,14.23,11.53,25.76,25.76,25.76,4.3,0,8.54-1.08,12.31-3.13h0c3.13-1.78,6.68-2.71,10.28-2.71,3.4,0,6.74.83,9.75,2.42,3.9,2.24,8.32,3.42,12.83,3.42,14.22,0,25.76-11.53,25.76-25.76,0-6.83-2.71-13.39-7.55-18.22-4.83-4.83-11.39-7.55-18.21-7.55-4.72,0-9.35,1.3-13.38,3.74-2.86,1.41-6,2.14-9.19,2.14s-6.49-.77-9.4-2.25c-3.99-2.38-8.54-3.64-13.19-3.64Z"></path><path class="cls-4" d="m187.67,122.16c0,8.34-6.76,15.1-15.11,15.1s-15.1-6.76-15.1-15.1,6.77-15.1,15.1-15.1,15.11,6.76,15.11,15.1Z"></path><rect class="cls-6" x="146.17" y="41.1" width="7.68" height="22.75"></rect><path class="cls-6" d="m160.33,36.25c0,5.7-4.63,10.33-10.33,10.33s-10.34-4.63-10.34-10.33,4.63-10.33,10.34-10.33,10.33,4.62,10.33,10.33Z"></path><path class="cls-4" d="m142.5,122.16c0,8.34-6.77,15.1-15.1,15.1s-15.1-6.76-15.1-15.1,6.76-15.1,15.1-15.1,15.1,6.76,15.1,15.1Z"></path><path class="cls-2" d="m135.11,112.25c0,4.26-3.45,7.71-7.71,7.71s-7.72-3.45-7.72-7.71,3.46-7.71,7.72-7.71,7.71,3.45,7.71,7.71Z"></path><path class="cls-2" d="m180.28,112.25c0,4.26-3.46,7.71-7.72,7.71s-7.71-3.45-7.71-7.71,3.46-7.71,7.71-7.71,7.72,3.45,7.72,7.71Z"></path><path class="cls-1" d="m127.4,96.39c-14.23,0-25.77,11.53-25.77,25.77,0,.85.04,1.71.13,2.56,1.31-13.18,12.4-23.21,25.64-23.22,4.64,0,9.2,1.26,13.19,3.64,2.92,1.48,6.14,2.25,9.4,2.25s6.33-.73,9.19-2.14c4.03-2.45,8.66-3.75,13.38-3.75,13.23,0,24.32,10.04,25.63,23.21.08-.85.13-1.69.13-2.55,0-14.23-11.53-25.77-25.76-25.77-4.72,0-9.35,1.3-13.38,3.74-2.86,1.41-6,2.14-9.19,2.14s-6.49-.77-9.41-2.25c-3.99-2.38-8.55-3.64-13.19-3.64Z"></path><rect class="cls-4" x="84.57" y="216.91" width="18.69" height="18.69"></rect><rect class="cls-4" x="121.96" y="235.61" width="18.7" height="18.69"></rect><rect class="cls-4" x="159.35" y="254.3" width="18.69" height="18.7"></rect><rect class="cls-4" x="196.74" y="216.91" width="18.69" height="18.69"></rect><path class="cls-2" d="m168.01,163.82c0,9.95-8.06,18.01-18.01,18.01s-18.01-8.06-18.01-18.01h36.02Z"></path><path class="cls-3" d="m135.1,47.42c-.52,0-1.05-.21-1.43-.63-.23-.26-5.68-6.46-1.79-21.36.27-1.04,1.33-1.66,2.38-1.39,1.04.27,1.67,1.34,1.39,2.38-3.31,12.63.88,17.71.92,17.76.69.81.62,2.04-.18,2.74-.37.33-.84.49-1.3.49Z"></path><path class="cls-3" d="m126.93,43.43c-.35,0-.69-.14-.94-.42-.15-.17-3.75-4.26-1.18-14.09.18-.69.88-1.1,1.57-.92.69.18,1.1.88.92,1.57-2.18,8.33.58,11.68.6,11.72.46.53.41,1.34-.12,1.81-.25.22-.55.33-.86.33Z"></path><path class="cls-3" d="m164.9,47.43c-.47,0-.94-.17-1.31-.51-.8-.73-.86-1.96-.13-2.76.02-.03,4.2-5.11.9-17.74-.27-1.04.35-2.11,1.39-2.38,1.05-.28,2.11.35,2.38,1.39,3.9,14.89-1.55,21.1-1.79,21.36-.39.42-.91.64-1.44.64Z"></path><path class="cls-3" d="m173.07,43.43c-.31,0-.62-.11-.87-.34-.53-.48-.56-1.29-.09-1.82.01-.02,2.77-3.37.59-11.7-.18-.69.23-1.39.92-1.57.69-.18,1.39.23,1.57.92,2.57,9.82-1.02,13.92-1.18,14.09-.25.28-.6.42-.95.42Z"></path></svg>