<svg width="16" height="16" viewBox="0 0 16 16" fill="none" xmlns="http://www.w3.org/2000/svg">
<path d="M2 2.5C2 2.22386 2.22386 2 2.5 2H13.5C13.7761 2 14 2.22386 14 2.5V3.5C14 3.77614 13.7761 4 13.5 4H11.4142L8.70711 6.70711C8.31658 7.09763 7.68342 7.09763 7.29289 6.70711L5.5 4.91421L3.70711 6.70711C3.31658 7.09763 2.68342 7.09763 2.29289 6.70711L2 6.41421V13.5C2 13.7761 2.22386 14 2.5 14H13.5C13.7761 14 14 14.2239 14 14.5V14.5C14 14.7761 13.7761 15 13.5 15H2.5C1.67157 15 1 14.3284 1 13.5V2.5C1 2.22386 1.22386 2 1.5 2H2V2.5Z" fill="#116C7E"/>
<path d="M4.5 9.5C4.5 8.94772 4.94772 8.5 5.5 8.5C6.05228 8.5 6.5 8.94772 6.5 9.5V12.5C6.5 13.0523 6.05228 13.5 5.5 13.5C4.94772 13.5 4.5 13.0523 4.5 12.5V9.5Z" fill="#116C7E"/>
<path d="M7.5 8C7.5 7.44772 7.94772 7 8.5 7C9.05228 7 9.5 7.44772 9.5 8V12.5C9.5 13.0523 9.05228 13.5 8.5 13.5C7.94772 13.5 7.5 13.0523 7.5 12.5V8Z" fill="#116C7E"/>
<path d="M10.5 6.5C10.5 5.94772 10.9477 5.5 11.5 5.5C12.0523 5.5 12.5 5.94772 12.5 6.5V12.5C12.5 13.0523 12.0523 13.5 11.5 13.5C10.9477 13.5 10.5 13.0523 10.5 12.5V6.5Z" fill="#116C7E"/>
</svg>
